# xmcd CD database file
#
# Track frame offsets:
#	150
#	12811
#	24812
#	43980
#	60533
#	75464
#	91350
#	109438
#	124737
#	140510
#	157693
#
# Disc length: 2321 seconds
#
# Revision: 0
# Processed by: cddbd v1.5.1PL0 Copyright (c) Steve Scherf et al.
# Submitted via: CDex 1.50
#
DISCID=80090f0b
DTITLE=Ray Lani - Just Me
DYEAR=2005
DGENRE=Country
TTITLE0=Ray Lani =If I Just Pick A Piece Up Everyday
TTITLE1=Ray Lani =It's The Moments In Between
TTITLE2=Ray Lani =Just A Hug
TTITLE3=Ray Lani =I Just Can't Believe You're Gone
TTITLE4=Ray Lani =If It Were Not For You
TTITLE5=Ray Lani =The First Time
TTITLE6=Ray Lani =Breathtaking
TTITLE7=Ray Lani =You're My Favorite Memory
TTITLE8=Ray Lani =Vegas To Alaska
TTITLE9=Ray Lani =The Letter I Never Sent
TTITLE10=Ray Lani =An Angel In The Making
EXTD=YEAR: 2005
EXTT0=
EXTT1=
EXTT2=
EXTT3=
EXTT4=
EXTT5=
EXTT6=
EXTT7=
EXTT8=
EXTT9=
EXTT10=
PLAYORDER=
